<svg id="Layer_1" enable-background="new 0 0 256 256" height="512" viewBox="0 0 256 256" width="512" xmlns="http://www.w3.org/2000/svg"><g><path d="m255.8 59.5c-4.3-.8-7.7-4.1-8.5-8.4 0-.1-.1-.2-.2-.2s-.1.1-.2.2c-.9 4.3-4.2 7.6-8.5 8.4-.1 0-.2.1-.2.2s.1.2.2.2c4.3.8 7.7 4.1 8.5 8.4 0 .1.1.2.2.2s.1-.1.2-.2c.9-4.3 4.2-7.6 8.5-8.4.1 0 .2-.1.2-.2s-.1-.2-.2-.2z" fill="#f5c84c"/><path d="m87 233.3h-2.2v-2.3c0-1.7-1.4-3-3-3-1.7 0-3 1.4-3 3v2.2h-2.2c-1.7 0-3 1.4-3 3 0 1.7 1.4 3 3 3h2.2v2.2c0 1.7 1.4 3 3 3 1.7 0 3-1.4 3-3v-2.2h2.2c1.7 0 3-1.4 3-3 .1-1.6-1.3-2.9-3-2.9z" fill="#87d147"/><circle cx="241.2" cy="38.4" fill="#70d6f9" r="3.2"/><circle cx="63.2" cy="131.4" fill="#ef4460" r="3.2"/><circle cx="105.2" cy="246.4" fill="#f5c84c" r="3.2"/><path d="m223.3 14.8h-135c-2.4 0-4.3 1.9-4.3 4.3v21.7c0-2.4 1.9-4.3 4.3-4.3h135.1c2.4 0 4.3 1.9 4.3 4.3v-21.7c-.1-2.4-2-4.3-4.4-4.3z" fill="#87d147"/><path d="m180.2 36.5h31.7c-4.2-2.9-7.3-7.1-8.8-11.9-.2-.8-.9-1.3-1.7-1.3h-91.1c-.8 0-1.5.5-1.7 1.3-1.5 4.9-4.6 9.1-8.8 11.9z" fill="#b2e26d"/><path d="m83.9 43.3c-1.4 0-2.5-1.1-2.5-2.5v-21.7c0-3.8 3.1-6.8 6.8-6.8h135.1c3.8 0 6.8 3.1 6.8 6.8v21.7c0 1.4-1.1 2.5-2.5 2.5s-2.5-1.1-2.5-2.5c0-1-.8-1.8-1.8-1.8h-135c-1 0-1.8.8-1.8 1.8-.1 1.4-1.2 2.5-2.6 2.5zm4.4-26c-1 0-1.8.8-1.8 1.8v15.1c.5-.2 1.1-.2 1.8-.2h135.1c.6 0 1.2.1 1.8.2v-15.1c0-1-.8-1.8-1.8-1.8z"/><path d="m211.9 39h-112.2c-1.4 0-2.5-1.1-2.5-2.5 0-.8.4-1.6 1.1-2.1 3.7-2.5 6.5-6.3 7.8-10.6.6-1.8 2.2-3 4.1-3h91.1c1.9 0 3.6 1.2 4.1 3.1 1.3 4.3 4.1 8.1 7.8 10.6 1.1.8 1.4 2.3.7 3.5-.4.6-1.2 1-2 1zm-105.7-5h99.2c-2-2.4-3.6-5.2-4.6-8.2h-90.1c-.9 3-2.5 5.7-4.5 8.2z"/><path d="m223.3 36.5h-135c-2.4 0-4.3 1.9-4.3 4.3v21.7c0-2.4 1.9-4.3 4.3-4.3h135.1c2.4 0 4.3 1.9 4.3 4.3v-21.7c-.1-2.4-2-4.3-4.4-4.3z" fill="#87d147"/><path d="m180.2 58.2h31.7c-4.2-2.9-7.3-7.1-8.8-11.9-.2-.8-.9-1.3-1.7-1.3h-91.1c-.8 0-1.5.5-1.7 1.3-1.5 4.9-4.6 9.1-8.8 11.9z" fill="#b2e26d"/><path d="m83.9 65c-1.4 0-2.5-1.1-2.5-2.5v-21.7c0-3.8 3.1-6.8 6.8-6.8h135.1c3.8 0 6.8 3.1 6.8 6.8v21.7c0 1.4-1.1 2.5-2.5 2.5s-2.5-1.1-2.5-2.5c0-1-.8-1.8-1.8-1.8h-135c-1 0-1.8.8-1.8 1.8-.1 1.4-1.2 2.5-2.6 2.5zm4.4-26c-1 0-1.8.8-1.8 1.8v15.1c.6-.2 1.2-.2 1.8-.2h135.1c.6 0 1.2.1 1.8.2v-15.1c0-1-.8-1.8-1.8-1.8z"/><path d="m211.9 60.7h-112.2c-1.4 0-2.5-1.1-2.5-2.5 0-.8.4-1.6 1.1-2.1 3.7-2.5 6.5-6.3 7.8-10.6.6-1.8 2.2-3 4.1-3h91.1c1.9 0 3.6 1.2 4.1 3.1 1.3 4.3 4.1 8 7.8 10.6 1.1.8 1.4 2.3.7 3.5-.4.6-1.2 1-2 1zm-105.7-5h99.2c-2-2.4-3.6-5.2-4.6-8.2h-90.1c-.9 3-2.5 5.8-4.5 8.2z"/><path d="m5.5 143.6h26.3c1.7 0 3 1.3 3 3v91.6c0 1.7-1.3 3-3 3h-26.3c-1.7 0-3-1.3-3-3v-91.6c0-1.7 1.3-3 3-3z" fill="#70d6f9"/><path d="m48.7 149.5h-13.9v84.4h13.9c1.7 0 3-1.3 3-3v-78.4c0-1.7-1.3-3-3-3z" fill="#dae6f1"/><path d="m239.8 175c-3.1-6.2-10.6-8.9-16.9-5.9l-49.8 23.6c3.2-2.2 5.4-5.1 5.4-8.8 0-16.2-21.3-13.2-38.2-13.2-10.5 0-27-5.6-38-9.9-8-3.1-16.6-4.2-25.1-3.3l-25.3 2.7v59.1l10.8-1.2c10.7-1.2 21.6-.4 32 2.4l34.7 9.1c19.7 5.2 40.6 2.4 58.3-7.8l47.6-30.3c5.4-3.6 7.3-10.6 4.5-16.5z" fill="#f9d0b4"/><path d="m31.8 243.7h-26.3c-3 0-5.5-2.5-5.5-5.5v-91.6c0-3 2.5-5.5 5.5-5.5h26.3c3 0 5.5 2.5 5.5 5.5v91.6c0 3.1-2.4 5.5-5.5 5.5zm-26.3-97.6c-.3 0-.5.2-.5.5v91.6c0 .3.2.5.5.5h26.3c.3 0 .5-.2.5-.5v-91.6c0-.3-.2-.5-.5-.5z"/><path d="m48.7 236.4h-13.9c-1.4 0-2.5-1.1-2.5-2.5v-84.4c0-1.4 1.1-2.5 2.5-2.5h13.9c3 0 5.5 2.5 5.5 5.5v78.4c0 3-2.4 5.5-5.5 5.5zm-11.4-5h11.4c.3 0 .5-.2.5-.5v-78.4c0-.3-.2-.5-.5-.5h-11.4z"/><path d="m149 234.6c-6.9 0-13.7-.9-20.4-2.6l-34.6-9.2c-10.2-2.7-20.7-3.5-31.1-2.3l-10.9 1.2c-1.4.1-2.6-.8-2.8-2.2 0-.1 0-.2 0-.3v-59.1c0-1.3 1-2.4 2.2-2.5l25.3-2.7c8.9-.9 17.9.3 26.3 3.5 16.2 6.3 29.4 9.8 37.1 9.8 2.2 0 4.6-.1 6.8-.1 11.7-.3 23.7-.5 29.9 5.5 2.7 2.7 4.1 6.5 3.9 10.3 0 .8-.1 1.6-.2 2.4l41.1-19.5c7.6-3.6 16.7-.4 20.3 7.2 3.3 7 .9 15.3-5.6 19.4l-47.6 30.3s-.1 0-.1.1c-11.9 7.1-25.6 10.8-39.6 10.8zm-76.9-19.6c7.8 0 15.5 1 23.1 3l34.7 9.1c19 5 39.3 2.3 56.4-7.5l47.5-30.2c4.8-3 6.2-9.4 3.1-14.1-2.8-4.3-8.4-6-13-3.8l-49.4 23.5c-3.6 2.4-8.7 4.3-15.2 5.7-6.6 1.3-13.4 2-20.1 2.1-1.4 0-2.5-1.1-2.5-2.5s1.1-2.5 2.5-2.5c9.5 0 36.8-2.5 36.8-13.7.2-2.5-.7-4.9-2.4-6.7-4.7-4.6-15.7-4.3-26.3-4.1-2.3.1-4.7.1-6.9.1-10.7 0-27.1-5.5-38.9-10.1-7.6-2.9-15.8-4-23.9-3.2l-23.1 2.4v54l8-.9c3.1-.4 6.3-.6 9.6-.6z"/><path d="m223.3 58.2h-135c-2.4 0-4.3 1.9-4.3 4.3v77.2c0 2.4 1.9 4.3 4.3 4.3h135.1c2.4 0 4.3-1.9 4.3-4.3v-77.2c-.1-2.4-2-4.3-4.4-4.3z" fill="#87d147"/><path d="m217.9 82.7c-7.1-2.1-12.7-7.7-14.8-14.8-.2-.8-.9-1.3-1.7-1.3h-91.1c-.8 0-1.5.5-1.7 1.3-2.1 7.1-7.7 12.7-14.8 14.8-.8.2-1.3.9-1.3 1.7v33.3c0 .8.5 1.5 1.3 1.7 7.1 2.1 12.7 7.7 14.8 14.8.2.8.9 1.3 1.7 1.3h91.1c.8 0 1.5-.5 1.7-1.3 2.1-7.1 7.7-12.7 14.8-14.8.8-.2 1.3-.9 1.3-1.7v-33.2c-.1-.8-.6-1.5-1.3-1.8z" fill="#b2e26d"/><circle cx="155.8" cy="101.1" fill="#87d147" r="24.2"/><path d="m158.8 114.3h-9.5c-1.4 0-2.5-1.1-2.5-2.5s1.1-2.5 2.5-2.5h9.5c1.6 0 2.8-1.3 2.8-2.9 0-1.5-1.3-2.8-2.8-2.8h-5.9c-4.3 0-7.9-3.4-7.9-7.8 0-4.3 3.4-7.9 7.8-7.9h.2 8.4c1.4 0 2.5 1.1 2.5 2.5s-1.1 2.5-2.5 2.5h-8.4c-1.6 0-2.9 1.2-2.9 2.8s1.2 2.9 2.8 2.9h.1 5.9c4.3 0 7.8 3.6 7.8 7.9-.2 4.3-3.7 7.8-7.9 7.8z"/><path d="m155.8 118c-1.4 0-2.5-1.1-2.5-2.5v-28.7c0-1.4 1.1-2.5 2.5-2.5s2.5 1.1 2.5 2.5v28.7c0 1.3-1.1 2.5-2.5 2.5z"/><path d="m223.3 146.6h-135c-3.8 0-6.8-3.1-6.8-6.8v-77.3c0-3.8 3.1-6.8 6.8-6.8h135.1c3.8 0 6.8 3.1 6.8 6.8v77.2c-.1 3.8-3.1 6.9-6.9 6.9zm-135-85.9c-1 0-1.8.8-1.8 1.8v77.2c0 1 .8 1.8 1.8 1.8h135.1c1 0 1.8-.8 1.8-1.8v-77.2c0-1-.8-1.8-1.8-1.8z"/><path d="m118.4 103.6h-5.1c-1.4 0-2.5-1.1-2.5-2.5s1.1-2.5 2.5-2.5h5.1c1.4 0 2.5 1.1 2.5 2.5s-1.1 2.5-2.5 2.5z"/><path d="m198.3 103.6h-5.1c-1.4 0-2.5-1.1-2.5-2.5s1.1-2.5 2.5-2.5h5.1c1.4 0 2.5 1.1 2.5 2.5s-1.1 2.5-2.5 2.5z"/><path d="m201.4 138.1h-91.1c-1.9 0-3.6-1.2-4.1-3.1-1.9-6.3-6.8-11.2-13.1-13.1-1.8-.6-3-2.2-3-4.1v-33.3c0-1.9 1.2-3.6 3.1-4.1 6.3-1.9 11.2-6.8 13.1-13.1.6-1.8 2.2-3 4.1-3h91.1c1.9 0 3.6 1.2 4.1 3.1 1.9 6.3 6.8 11.2 13.1 13.1 1.8.6 3 2.2 3.1 4.1v33.3c0 1.9-1.2 3.6-3.1 4.1-6.3 1.9-11.2 6.8-13.1 13.1-.7 1.7-2.4 2.9-4.2 3zm-90.7-5h90.1c2.4-7.5 8.3-13.4 15.8-15.8v-32.3c-7.5-2.4-13.4-8.3-15.8-15.8h-90.1c-2.4 7.5-8.3 13.4-15.8 15.8v32.3c7.5 2.4 13.4 8.3 15.8 15.8z"/><path d="m155.8 127.8c-14.8 0-26.7-12-26.7-26.7s12-26.7 26.7-26.7c14.8 0 26.7 12 26.7 26.7 0 14.8-12 26.7-26.7 26.7zm0-48.4c-12 0-21.7 9.7-21.7 21.7s9.7 21.7 21.7 21.7 21.7-9.7 21.7-21.7-9.7-21.7-21.7-21.7z"/></g></svg>